<svg width="53" height="53" viewBox="0 0 53 53" fill="none" xmlns="http://www.w3.org/2000/svg">
<path d="M22.7237 8.52416L4.01915 39.75C3.63351 40.4178 3.42945 41.175 3.42729 41.9462C3.42513 42.7174 3.62494 43.4757 4.00684 44.1457C4.38874 44.8157 4.93942 45.3741 5.60409 45.7652C6.26876 46.1563 7.02425 46.3665 7.7954 46.375H45.2046C45.9757 46.3665 46.7312 46.1563 47.3959 45.7652C48.0605 45.3741 48.6112 44.8157 48.9931 44.1457C49.375 43.4757 49.5748 42.7174 49.5727 41.9462C49.5705 41.175 49.3665 40.4178 48.9808 39.75L30.2762 8.52416C29.8826 7.87515 29.3282 7.33855 28.6668 6.96615C28.0053 6.59374 27.2591 6.3981 26.5 6.3981C25.7409 6.3981 24.9946 6.59374 24.3332 6.96615C23.6717 7.33855 23.1174 7.87515 22.7237 8.52416Z" stroke="#1E1E1E" stroke-width="4" stroke-linecap="round" stroke-linejoin="round"/>
</svg>
